<?xml version="1.0" encoding="utf-8"?>
<!-- Generator: Adobe Illustrator 25.1.0, SVG Export Plug-In . SVG Version: 6.00 Build 0)  -->
<svg version="1.1" id="Layer_1" xmlns="http://www.w3.org/2000/svg" xmlns:xlink="http://www.w3.org/1999/xlink" x="0px" y="0px"
	 viewBox="0 0 801.3 244" style="enable-background:new 0 0 801.3 244;" xml:space="preserve">
<style type="text/css">
	.st0{fill:none;stroke:#FFFFFF;stroke-width:2;stroke-miterlimit:9.9998;}
	.st1{stroke:#000000;stroke-width:12;stroke-miterlimit:10;}
	.st2{fill:none;stroke:#FFFFFF;stroke-width:2;stroke-miterlimit:10;}
	.st3{fill:#FFFFFF;}
</style>
<ellipse transform="matrix(0.7317 -0.6816 0.6816 0.7317 20.2214 291.3679)" class="st0" cx="380.2" cy="120" rx="135.2" ry="32.4"/>
<ellipse transform="matrix(0.7317 -0.6816 0.6816 0.7317 61.8435 397.1411)" class="st0" cx="535.4" cy="120" rx="135.2" ry="32.4"/>
<ellipse transform="matrix(0.7317 -0.6816 0.6816 0.7317 103.4658 502.9143)" class="st0" cx="690.6" cy="120" rx="135.2" ry="32.4"/>
<g>
	<path class="st1" d="M192.3,155.7c-20.9,7.1-47.7,10.6-80.2,10.6c-31.6,0-56.9-3.4-75.9-10c-17.9-6.4-26.9-16-26.9-29.1
		c0-12.6,8.3-22.1,25-28.8c16.7-6.5,41.3-9.9,73.9-9.9c37.9,0,65.9,3.4,84.2,10.2V112c-20.5-7.2-48.7-10.7-84.6-10.7
		c-26.9,0-47.5,2.3-61.8,6.8c-13.7,4.3-20.6,10.6-20.6,18.6c0,7.2,5.2,12.8,15.3,16.8c15.1,6,37.6,9,67.9,9
		c32.2,0,60.1-3.1,83.8-9.5L192.3,155.7L192.3,155.7z"/>
	<path class="st1" d="M221,165.2c-4.6,0-8.3-0.8-11-2.4c-2.7-1.6-4.1-3.5-4.1-5.8c0-2.3,1.4-4.2,4.2-6c2.9-1.6,6.7-2.4,11.3-2.4
		c4.5,0,8.1,0.8,10.9,2.4c2.7,1.6,4.1,3.5,4.1,5.8c0,2.3-1.4,4.3-4.1,6C229.4,164.4,225.6,165.2,221,165.2z"/>
	<path class="st1" d="M255.3,162.9V91.3h181v12.8H271v22.5h165.4v12.8H271v23.5H255.3z"/>
	<path class="st1" d="M449.4,165.2c-4.6,0-8.3-0.8-11-2.4c-2.7-1.6-4.1-3.5-4.1-5.8c0-2.3,1.4-4.2,4.3-6c2.9-1.6,6.5-2.4,11.3-2.4
		c4.5,0,8.1,0.8,10.9,2.4c2.7,1.6,4.1,3.5,4.1,5.8c0,2.3-1.4,4.3-4.2,6C457.8,164.4,454,165.2,449.4,165.2z"/>
	<path class="st1" d="M483.7,162.9V91.3h23.5l87.7,61.1l88-61.1h23.5v71.6h-15.3v-59.3l-85.1,59.3h-21.6l-85.3-59.3v59.3H483.7z"/>
	<path class="st1" d="M740.5,165.2c-4.6,0-8.3-0.8-11-2.4c-2.7-1.6-4.1-3.5-4.1-5.8c0-2.3,1.4-4.2,4.3-6c2.9-1.6,6.5-2.4,11.3-2.4
		c4.5,0,8.1,0.8,10.9,2.4c2.7,1.6,4.1,3.5,4.1,5.8c0,2.3-1.4,4.3-4.2,6C748.9,164.4,745.1,165.2,740.5,165.2z"/>
</g>
<g>
	<path class="st2" d="M192.3,155.7c-20.9,7.1-47.7,10.6-80.2,10.6c-31.6,0-56.9-3.4-75.9-10c-17.9-6.4-26.9-16-26.9-29.1
		c0-12.6,8.3-22.1,25-28.8c16.7-6.5,41.3-9.9,73.9-9.9c37.9,0,65.9,3.4,84.2,10.2V112c-20.5-7.2-48.7-10.7-84.6-10.7
		c-26.9,0-47.5,2.3-61.8,6.8c-13.7,4.3-20.6,10.6-20.6,18.6c0,7.2,5.2,12.8,15.3,16.8c15.1,6,37.6,9,67.9,9
		c32.2,0,60.1-3.1,83.8-9.5L192.3,155.7L192.3,155.7z"/>
	<path class="st2" d="M221,165.2c-4.6,0-8.3-0.8-11-2.4c-2.7-1.6-4.1-3.5-4.1-5.8c0-2.3,1.4-4.2,4.2-6c2.9-1.6,6.7-2.6,11.3-2.6
		c4.5,0,8.1,0.8,10.9,2.4c2.7,1.6,4.1,3.5,4.1,5.8c0,2.3-1.4,4.3-4.1,6C229.4,164.4,225.6,165.2,221,165.2z"/>
	<path class="st2" d="M255.3,162.9V91.3h181v12.8H271v22.5h165.4v12.8H271v23.5H255.3z"/>
	<path class="st2" d="M449.4,165.2c-4.6,0-8.3-0.8-11-2.4c-2.7-1.6-4.1-3.5-4.1-5.8c0-2.3,1.4-4.2,4.3-6c2.9-1.6,6.5-2.6,11.3-2.6
		c4.5,0,8.1,0.8,10.9,2.4c2.7,1.6,4.1,3.5,4.1,5.8c0,2.3-1.4,4.3-4.2,6C457.8,164.4,454,165.2,449.4,165.2z"/>
	<path class="st2" d="M483.7,162.9V91.3h23.5l87.7,61.1l88-61.1h23.5v71.6h-15.3v-59.3l-85.1,59.3h-21.6l-85.3-59.3v59.3H483.7z"/>
	<path class="st2" d="M740.5,165.2c-4.6,0-8.3-0.8-11-2.4c-2.7-1.6-4.1-3.5-4.1-5.8c0-2.3,1.4-4.2,4.3-6c2.9-1.6,6.5-2.6,11.3-2.6
		c4.5,0,8.1,0.8,10.9,2.4c2.7,1.6,4.1,3.5,4.1,5.8c0,2.3-1.4,4.3-4.2,6C748.9,164.4,745.1,165.2,740.5,165.2z"/>
</g>
<path d="M643.3,181.5H323.6c-4.1,0-7.5,3.4-7.5,7.5v10.3c0,4.1,3.4,7.5,7.5,7.5h319.6c4.1,0,7.5-3.4,7.5-7.5V189
	C650.7,184.8,647.5,181.5,643.3,181.5z"/>
<g>
	<path class="st3" d="M333.7,196.7c-0.1,0.7-0.3,1.4-0.7,1.9c-0.3,0.5-0.7,1.1-1.1,1.4c-0.4,0.4-1,0.7-1.5,0.8
		c-0.5,0.1-1.2,0.3-1.9,0.3c-0.5,0-1,0-1.5-0.1c-0.4-0.1-0.8-0.3-1.2-0.5c-0.4-0.3-0.8-0.5-1.1-0.8c-0.4-0.4-0.8-1-1-1.5
		c-0.1-0.5-0.3-1.1-0.4-1.8c0-0.7-0.1-1.5-0.1-2.6c0-0.8,0-1.6,0-2c0-0.5,0.1-1,0.1-1.4c0.1-0.4,0.3-0.8,0.4-1.2
		c0.1-0.4,0.4-0.7,0.8-1.1c0.5-0.5,1.1-1,1.8-1.1c0.7-0.3,1.4-0.4,2-0.4c1.4,0,2.4,0.4,3.4,1.2c1,0.8,1.5,1.9,1.8,3.3h-2.3
		c-0.1-0.8-0.5-1.4-1-1.8c-0.5-0.4-1.1-0.7-1.9-0.7c-0.4,0-0.8,0.1-1.2,0.3c-0.4,0.1-0.7,0.4-1,0.7c-0.1,0.3-0.4,0.4-0.4,0.7
		c-0.1,0.3-0.1,0.5-0.3,0.8c-0.1,0.3-0.1,0.8-0.1,1.2c0,0.4,0,1.1,0,1.8c0,0.8,0,1.4,0,1.8c0,0.4,0.1,0.8,0.1,1.2
		c0,0.4,0.1,0.7,0.3,0.8c0.1,0.1,0.3,0.4,0.4,0.7c0.3,0.3,0.5,0.5,1,0.7c0.4,0.1,0.8,0.3,1.2,0.3c0.5,0,1-0.1,1.4-0.3
		c0.4-0.3,0.7-0.5,1-0.8c0.3-0.4,0.4-0.8,0.5-1.4h2.4L333.7,196.7L333.7,196.7z"/>
	<path class="st3" d="M346.6,193.7c0,1.1,0,2,0,2.6s-0.1,1.2-0.4,1.8c-0.1,0.5-0.5,1.1-1,1.5c-1.1,1.1-2.3,1.5-3.8,1.5
		s-2.7-0.5-3.8-1.5c-0.4-0.4-0.8-1-1-1.5c-0.1-0.5-0.3-1.1-0.4-1.8c0-0.7-0.1-1.5-0.1-2.6c0-0.8,0-1.6,0-2c0-0.5,0.1-1,0.1-1.4
		c0.1-0.4,0.3-0.8,0.4-1.2c0.1-0.4,0.4-0.7,0.8-1.1c1.1-1.1,2.3-1.5,3.8-1.5s2.9,0.5,3.8,1.5c0.4,0.4,0.8,1,1,1.5
		c0.1,0.5,0.3,1.1,0.4,1.8C346.6,191.7,346.6,192.6,346.6,193.7z M344.4,193.7c0-1.5,0-2.4-0.1-3c-0.1-0.5-0.4-1.1-0.7-1.5
		c-0.3-0.3-0.5-0.5-1-0.7s-0.8-0.3-1.2-0.3c-0.4,0-0.8,0.1-1.2,0.3c-0.4,0.1-0.7,0.4-1,0.7c-0.4,0.4-0.5,0.8-0.7,1.5
		c-0.1,0.5-0.1,1.6-0.1,3c0,0.8,0,1.4,0,1.9c0,0.4,0.1,0.8,0.1,1.2c0,0.4,0.1,0.7,0.3,0.8c0.1,0.1,0.3,0.4,0.4,0.7
		c0.3,0.3,0.5,0.5,1,0.7s0.8,0.3,1.2,0.3c0.8,0,1.6-0.3,2.2-1c0.3-0.3,0.4-0.5,0.5-1c0.1-0.3,0.3-0.8,0.3-1.4
		C344.4,195.5,344.4,194.7,344.4,193.7z"/>
	<path class="st3" d="M362.6,201.1h-2.2v-9.6l-3.4,7.1h-1.6l-3.4-7.1v9.6h-2.2v-14.5h2.2l4.2,9l4.2-9h2.2L362.6,201.1L362.6,201.1z"
		/>
	<path class="st3" d="M376.6,190.9c0,0.8-0.1,1.6-0.5,2.3c-0.4,0.7-1,1.2-1.6,1.6c-0.7,0.4-1.5,0.5-2.4,0.5h-3.3v5.7h-2.3v-14.5h5.6
		c0.7,0,1.4,0.1,1.9,0.3c0.5,0.3,1.1,0.5,1.5,1c0.4,0.4,0.7,0.8,1,1.4C376.5,189.6,376.6,190.2,376.6,190.9z M374.3,190.9
		c0-0.8-0.3-1.4-0.7-1.8c-0.4-0.4-1.1-0.7-1.9-0.7h-3.1v4.9h3.1c0.8,0,1.4-0.3,1.9-0.7C374.1,192.2,374.3,191.7,374.3,190.9z"/>
	<path class="st3" d="M389.9,201.1h-2.3l-1-2.9h-5.7l-1,2.9h-2.3l5.3-14.5h1.8L389.9,201.1z M386,196.2l-2.2-6.4l-2.3,6.4H386z"/>
	<path class="st3" d="M401.8,196.7c-0.1,0.7-0.3,1.4-0.7,1.9c-0.3,0.5-0.7,1.1-1.1,1.4c-0.4,0.4-1,0.7-1.5,0.8
		c-0.5,0.1-1.2,0.3-1.9,0.3c-0.5,0-1,0-1.5-0.1c-0.4-0.1-0.8-0.3-1.2-0.5c-0.4-0.3-0.8-0.5-1.1-0.8c-0.4-0.4-0.8-1-1-1.5
		c-0.1-0.5-0.3-1.1-0.4-1.8c0-0.7-0.1-1.5-0.1-2.6c0-0.8,0-1.6,0-2c0-0.5,0.1-1,0.1-1.4c0.1-0.4,0.3-0.8,0.4-1.2
		c0.1-0.4,0.4-0.7,0.8-1.1c0.5-0.5,1.1-1,1.8-1.1c0.7-0.3,1.4-0.4,2-0.4c1.4,0,2.4,0.4,3.4,1.2c1,0.8,1.5,1.9,1.8,3.3h-2.3
		c-0.1-0.8-0.5-1.4-1-1.8c-0.5-0.4-1.1-0.7-1.9-0.7c-0.4,0-0.8,0.1-1.2,0.3c-0.4,0.1-0.7,0.4-1,0.7c-0.1,0.3-0.4,0.4-0.4,0.7
		c-0.1,0.3-0.1,0.5-0.3,0.8c-0.1,0.3-0.1,0.8-0.1,1.2c0,0.4,0,1.1,0,1.8c0,0.8,0,1.4,0,1.8c0,0.4,0.1,0.8,0.1,1.2
		c0,0.4,0.1,0.7,0.3,0.8s0.3,0.4,0.4,0.7c0.3,0.3,0.5,0.5,1,0.7s0.8,0.3,1.2,0.3c0.5,0,1-0.1,1.4-0.3c0.4-0.3,0.7-0.5,1-0.8
		c0.3-0.4,0.4-0.8,0.5-1.4h2.4L401.8,196.7L401.8,196.7z"/>
	<path class="st3" d="M413.7,188.4h-3.9v12.5h-2.2v-12.5h-3.9v-2h10.2L413.7,188.4L413.7,188.4z"/>
	<path class="st3" d="M435.1,188.4h-7.1v4.5h6v2h-6v6.1h-2.2v-14.5h9.2V188.4z"/>
	<path class="st3" d="M447.1,201.1h-9.2v-14.5h2.2V199h6.9v2H447.1z"/>
	<path class="st3" d="M459.7,196.2c0,1-0.3,1.9-0.7,2.6c-0.4,0.7-1.1,1.4-1.9,1.8c-0.8,0.4-1.6,0.7-2.7,0.7c-1,0-1.9-0.3-2.7-0.7
		c-0.8-0.4-1.4-1-1.9-1.8c-0.5-0.8-0.7-1.6-0.7-2.6v-9.6h2.2v9.5c0,0.7,0.1,1.2,0.4,1.6c0.3,0.4,0.5,0.8,1.1,1.1
		c0.4,0.3,1,0.4,1.6,0.4c0.7,0,1.1-0.1,1.6-0.4c0.4-0.3,0.8-0.7,1.1-1.1c0.3-0.4,0.4-1.1,0.4-1.6v-9.5h2.2L459.7,196.2L459.7,196.2z
		"/>
	<path class="st3" d="M473.1,193.7c0,1.1,0,2,0,2.6s-0.1,1.2-0.4,1.8c-0.1,0.5-0.5,1.1-1,1.5c-1.1,1.1-2.3,1.5-3.8,1.5
		s-2.7-0.5-3.8-1.5c-0.4-0.4-0.8-1-1-1.5c-0.1-0.5-0.3-1.1-0.4-1.8c0-0.7-0.1-1.5-0.1-2.6c0-0.8,0-1.6,0-2c0-0.5,0.1-1,0.1-1.4
		c0.1-0.4,0.3-0.8,0.4-1.2c0.1-0.4,0.4-0.7,0.8-1.1c1.1-1.1,2.3-1.5,3.8-1.5s2.9,0.5,3.8,1.5c0.4,0.4,0.8,1,1,1.5
		c0.1,0.5,0.3,1.1,0.4,1.8C473.1,191.7,473.1,192.6,473.1,193.7z M471,193.7c0-1.5,0-2.4-0.1-3c-0.1-0.5-0.4-1.1-0.7-1.5
		c-0.3-0.3-0.5-0.5-1-0.7c-0.4-0.1-0.8-0.3-1.2-0.3c-0.4,0-0.8,0.1-1.2,0.3c-0.4,0.1-0.7,0.4-1,0.7c-0.4,0.4-0.5,0.8-0.7,1.5
		c-0.1,0.5-0.1,1.6-0.1,3c0,0.8,0,1.4,0,1.9c0,0.4,0,0.8,0.1,1.2c0,0.4,0.1,0.7,0.3,0.8c0.1,0.1,0.3,0.4,0.4,0.7
		c0.3,0.3,0.5,0.5,1,0.7c0.4,0.1,0.8,0.3,1.2,0.3c0.8,0,1.6-0.3,2.2-1c0.3-0.3,0.4-0.5,0.5-1c0.1-0.3,0.3-0.8,0.3-1.4
		C471,195.5,471,194.7,471,193.7z"/>
	<path class="st3" d="M487,201.1h-2.6l-3-6.1h-2.7v6.1h-2.2v-14.5h5.6c1,0,1.6,0.1,2.3,0.5c0.7,0.4,1.2,0.8,1.6,1.5s0.5,1.4,0.5,2.2
		c0,1-0.3,1.8-0.8,2.4c-0.5,0.7-1.2,1.1-2,1.4L487,201.1z M484.4,190.7c0-0.7-0.3-1.2-0.7-1.6c-0.4-0.4-1.1-0.5-1.8-0.5h-3.3v4.5
		h3.3c0.7,0,1.4-0.1,1.8-0.5C484.1,192,484.4,191.4,484.4,190.7z"/>
	<path class="st3" d="M499.1,201.1h-9.2v-14.5h9.2v2H492v4.2h6v1.9h-6v4.3h7.1V201.1z"/>
	<path class="st3" d="M511.1,196.8c0,0.7-0.1,1.2-0.4,1.8c-0.3,0.5-0.7,1-1.1,1.4c-0.4,0.4-1.1,0.7-1.6,0.8c-0.7,0.1-1.4,0.3-2,0.3
		c-1.1,0-2-0.1-2.9-0.4c-0.8-0.3-1.6-0.8-2.3-1.5l1.5-1.5c0.3,0.3,0.7,0.5,1.1,0.8c0.4,0.3,0.8,0.4,1.2,0.4c0.4,0,1,0.1,1.4,0.1
		c1,0,1.6-0.1,2.2-0.5c0.5-0.4,0.8-1,0.8-1.6s-0.1-1.2-0.5-1.5c-0.1-0.1-0.4-0.3-0.5-0.4c-0.3-0.1-0.5-0.1-1-0.3l-1.8-0.3
		c-1.2-0.1-2-0.5-2.7-1.2c-0.7-0.7-1.1-1.6-1.1-2.7c0-0.8,0.1-1.6,0.5-2.2c0.4-0.5,1-1.1,1.6-1.5c0.7-0.4,1.6-0.5,2.6-0.5
		c1,0,1.8,0.1,2.6,0.4c0.7,0.3,1.4,0.7,2,1.2l-1.4,1.4c-0.3-0.3-0.5-0.5-1-0.7c-0.3-0.1-0.7-0.3-1.1-0.4c-0.4-0.1-0.8-0.1-1.2-0.1
		c-0.5,0-1.1,0.1-1.4,0.3c-0.3,0.1-0.7,0.4-1,0.8c-0.3,0.4-0.3,0.7-0.3,1.2c0,0.5,0.1,1.1,0.5,1.4c0.1,0.1,0.4,0.3,0.7,0.4
		s0.5,0.3,1,0.3l1.6,0.3c0.7,0.1,1.2,0.3,1.6,0.4c0.4,0.1,0.8,0.4,1.1,0.7C510.7,194.5,511.1,195.6,511.1,196.8z"/>
	<path class="st3" d="M523.9,196.7c-0.1,0.7-0.3,1.4-0.7,1.9c-0.3,0.5-0.7,1.1-1.1,1.4c-0.4,0.4-1,0.7-1.5,0.8
		c-0.5,0.1-1.2,0.3-1.9,0.3c-0.5,0-1,0-1.5-0.1c-0.4-0.1-0.8-0.3-1.2-0.5c-0.4-0.3-0.8-0.5-1.1-0.8c-0.4-0.4-0.8-1-1-1.5
		c-0.1-0.5-0.3-1.1-0.4-1.8c0-0.7-0.1-1.5-0.1-2.6c0-0.8,0-1.6,0-2c0-0.5,0.1-1,0.1-1.4c0.1-0.4,0.3-0.8,0.4-1.2
		c0.1-0.4,0.4-0.7,0.8-1.1c0.5-0.5,1.1-1,1.8-1.1c0.7-0.3,1.4-0.4,2-0.4c1.4,0,2.4,0.4,3.4,1.2c1,0.8,1.5,1.9,1.8,3.3h-2.3
		c-0.1-0.8-0.5-1.4-1-1.8c-0.5-0.4-1.1-0.7-1.9-0.7c-0.4,0-0.8,0.1-1.2,0.3c-0.4,0.1-0.7,0.4-1,0.7c-0.1,0.3-0.4,0.4-0.4,0.7
		c-0.1,0.3-0.1,0.5-0.3,0.8s-0.1,0.8-0.1,1.2c0,0.4,0,1.1,0,1.8c0,0.8,0,1.4,0,1.8c0,0.4,0.1,0.8,0.1,1.2c0,0.4,0.1,0.7,0.3,0.8
		s0.3,0.4,0.4,0.7c0.3,0.3,0.5,0.5,1,0.7c0.4,0.1,0.8,0.3,1.2,0.3c0.5,0,1-0.1,1.4-0.3c0.4-0.3,0.7-0.5,1-0.8
		c0.3-0.4,0.4-0.8,0.5-1.4h2.4L523.9,196.7L523.9,196.7z"/>
	<path class="st3" d="M536.1,201.1h-9.2v-14.5h9.2v2h-7.1v4.2h6v1.9h-6v4.3h7.1V201.1z"/>
	<path class="st3" d="M550,201.1h-2l-6.7-10.2v10.2h-2.2v-14.5h2l6.7,10.2v-10.2h2.2V201.1z"/>
	<path class="st3" d="M562.7,188.4h-3.9v12.5h-2.2v-12.5h-3.9v-2h10.2L562.7,188.4L562.7,188.4z"/>
	<path class="st3" d="M587.9,201.1h-2.2v-9.6l-3.4,7.1h-1.6l-3.4-7.1v9.6h-2.2v-14.5h2.2l4.2,9l4.2-9h2.2V201.1z"/>
	<path class="st3" d="M602.3,201.1h-2.3l-1-2.9h-5.7l-1,2.9H590l5.3-14.5h1.8L602.3,201.1z M598.3,196.2l-2.2-6.4l-2.3,6.4H598.3z"
		/>
	<path class="st3" d="M613.3,188.4h-3.9v12.5h-2.2v-12.5h-3.9v-2h10.2L613.3,188.4L613.3,188.4z"/>
	<path class="st3" d="M626.3,201.1h-2.6l-3-6.1H618v6.1h-2.2v-14.5h5.6c1,0,1.6,0.1,2.3,0.5c0.7,0.4,1.2,0.8,1.6,1.5
		s0.5,1.4,0.5,2.2c0,1-0.3,1.8-0.8,2.4c-0.5,0.7-1.2,1.1-2,1.4L626.3,201.1z M623.6,190.7c0-0.7-0.3-1.2-0.7-1.6
		c-0.4-0.4-1.1-0.5-1.8-0.5h-3.3v4.5h3.3c0.7,0,1.4-0.1,1.8-0.5C623.4,192,623.6,191.4,623.6,190.7z"/>
	<path class="st3" d="M631.3,201.1h-2.2v-14.5h2.2V201.1z"/>
	<path class="st3" d="M644.8,201.1h-2.6l-3.1-5.6l-3.1,5.6h-2.6l4.5-7.5l-4.2-7.1h2.6l2.9,5.2l2.9-5.2h2.6l-4.2,7.1L644.8,201.1z"/>
</g>
</svg>
